<svg width="14" height="13" viewBox="0 0 14 13" fill="none" xmlns="http://www.w3.org/2000/svg">
<path d="M9.375 9.34375C9.33333 9.4375 9.29688 9.53646 9.26562 9.64062C9.23438 9.74479 9.21875 9.83333 9.21875 9.90625C9.21875 10.0312 9.24479 10.1146 9.29688 10.1562C9.35938 10.1979 9.4375 10.2188 9.53125 10.2188C9.67708 10.2188 9.85417 10.1458 10.0625 10C10.2708 9.85417 10.4896 9.64062 10.7188 9.35938L13.5781 5.82812L13.9688 6.14062L10.5156 10.4062C10.2656 10.7188 10.0312 10.9792 9.8125 11.1875C9.59375 11.3958 9.38542 11.5625 9.1875 11.6875C9 11.8021 8.80729 11.8854 8.60938 11.9375C8.42188 11.9896 8.22917 12.0156 8.03125 12.0156C7.71875 12.0156 7.45833 11.9271 7.25 11.75C7.04167 11.5625 6.9375 11.3281 6.9375 11.0469C6.9375 10.7344 6.99479 10.4115 7.10938 10.0781C7.23438 9.74479 7.41146 9.32812 7.64062 8.82812C7.72396 8.65104 7.82292 8.42188 7.9375 8.14062C8.0625 7.84896 8.19271 7.54688 8.32812 7.23438C8.46354 6.91146 8.59896 6.58854 8.73438 6.26562C8.86979 5.94271 8.98958 5.65104 9.09375 5.39062C9.19792 5.11979 9.28125 4.89583 9.34375 4.71875C9.41667 4.54167 9.45312 4.4375 9.45312 4.40625C9.45312 4.30208 9.41667 4.25 9.34375 4.25C9.25 4.25 9.15104 4.32812 9.04688 4.48438C8.98438 4.56771 8.85938 4.74479 8.67188 5.01562C8.48438 5.28646 8.25521 5.60938 7.98438 5.98438C7.71354 6.35938 7.42188 6.76562 7.10938 7.20312C6.79688 7.64062 6.48438 8.06771 6.17188 8.48438C5.85938 8.90104 5.5625 9.28125 5.28125 9.625C5 9.96875 4.76042 10.2396 4.5625 10.4375C4.0625 10.9375 3.61979 11.3333 3.23438 11.625C2.84896 11.9062 2.46875 12.0469 2.09375 12.0469C1.96875 12.0469 1.83333 12.0208 1.6875 11.9688C1.53125 11.9167 1.39062 11.8281 1.26562 11.7031C1.13021 11.5677 1.02083 11.3854 0.9375 11.1562C0.854167 10.9167 0.8125 10.6146 0.8125 10.25C0.8125 9.70833 0.9375 9.10938 1.1875 8.45312C1.42708 7.79688 1.76042 7.13021 2.1875 6.45312C2.61458 5.76562 3.11979 5.09375 3.70312 4.4375C4.28646 3.78125 4.91667 3.19271 5.59375 2.67188C6.28125 2.14062 7 1.69792 7.75 1.34375C8.5 0.989583 9.26042 0.776042 10.0312 0.703125V0.984375C9.39583 1.17188 8.78646 1.46354 8.20312 1.85938C7.61979 2.24479 7.07292 2.69271 6.5625 3.20312C6.05208 3.71354 5.58854 4.26042 5.17188 4.84375C4.75521 5.41667 4.39583 5.98438 4.09375 6.54688C3.79167 7.10938 3.5625 7.64583 3.40625 8.15625C3.23958 8.65625 3.15625 9.07812 3.15625 9.42188C3.15625 9.60938 3.1875 9.76562 3.25 9.89062C3.30208 10.0156 3.38021 10.0781 3.48438 10.0781C3.59896 10.0781 3.77083 9.98438 4 9.79688C4.21875 9.60938 4.47396 9.35938 4.76562 9.04688C5.05729 8.72396 5.375 8.35938 5.71875 7.95312C6.0625 7.53646 6.41146 7.10417 6.76562 6.65625C7.11979 6.20833 7.46875 5.75521 7.8125 5.29688C8.16667 4.83854 8.49479 4.40625 8.79688 4C9.25521 3.375 9.63542 2.85938 9.9375 2.45312C10.2396 2.04688 10.5 1.72396 10.7188 1.48438C10.9375 1.23438 11.1354 1.0625 11.3125 0.96875C11.4896 0.875 11.6823 0.828125 11.8906 0.828125C12.1094 0.828125 12.2604 0.885417 12.3438 1C12.4271 1.11458 12.4688 1.25521 12.4688 1.42188C12.4688 1.55729 12.4479 1.69792 12.4062 1.84375C12.375 1.98958 12.3333 2.11979 12.2812 2.23438C12.2396 2.32812 12.1458 2.55208 12 2.90625C11.8646 3.25 11.6979 3.66667 11.5 4.15625C11.3021 4.63542 11.0885 5.15104 10.8594 5.70312C10.6406 6.25521 10.4271 6.78125 10.2188 7.28125C10.0208 7.77083 9.84375 8.20833 9.6875 8.59375C9.53125 8.96875 9.42708 9.21875 9.375 9.34375Z" fill="white"/>
</svg>
