<svg width="11" height="14" viewBox="0 0 11 14" fill="none" xmlns="http://www.w3.org/2000/svg">
<path d="M4.22314 14H1.40283L1.42139 12.5435H4.22314C5.18799 12.5435 5.99202 12.3424 6.63525 11.9404C7.27848 11.5322 7.7609 10.9632 8.08252 10.2334C8.41032 9.4974 8.57422 8.6377 8.57422 7.6543V6.82861C8.57422 6.0555 8.48145 5.36898 8.2959 4.76904C8.11035 4.16292 7.83822 3.65267 7.47949 3.23828C7.12077 2.81771 6.68164 2.49919 6.16211 2.28271C5.64876 2.06624 5.05811 1.95801 4.39014 1.95801H1.34717V0.492188H4.39014C5.27458 0.492188 6.08171 0.640625 6.81152 0.9375C7.54134 1.22819 8.16911 1.65186 8.69482 2.2085C9.22673 2.75895 9.63493 3.42692 9.91943 4.2124C10.2039 4.9917 10.3462 5.86995 10.3462 6.84717V7.6543C10.3462 8.63151 10.2039 9.51286 9.91943 10.2983C9.63493 11.0776 9.22363 11.7425 8.68555 12.293C8.15365 12.8434 7.51042 13.2671 6.75586 13.564C6.00749 13.8547 5.16325 14 4.22314 14ZM2.3584 0.492188V14H0.567871V0.492188H2.3584Z" fill="white"/>
</svg>
